<?xml version="1.0" encoding="UTF-8"?>
<!DOCTYPE svg PUBLIC "-//W3C//DTD SVG 1.1//EN" "http://www.w3.org/Graphics/SVG/1.1/DTD/svg11.dtd">
<!-- Creator: CorelDRAW 2021 (64-Bit) -->
<svg xmlns="http://www.w3.org/2000/svg" xml:space="preserve" width="799px" height="260px" version="1.1" style="shape-rendering:geometricPrecision; text-rendering:geometricPrecision; image-rendering:optimizeQuality; fill-rule:evenodd; clip-rule:evenodd"
viewBox="0 0 748.91 244.16"
 xmlns:xlink="http://www.w3.org/1999/xlink"
 xmlns:xodm="http://www.corel.com/coreldraw/odm/2003">
 <defs>
  <style type="text/css">
   <![CDATA[
    .fil0 {fill:#000035}
    .fil3 {fill:#2FCCF2}
    .fil1 {fill:#E8415B}
    .fil2 {fill:#FFC700}
   ]]>
  </style>
 </defs>
 <g id="Capa_x0020_1">
  <metadata id="CorelCorpID_0Corel-Layer"/>
  <g id="_1709724791376">
   <g>
    <path class="fil0" d="M385.35 68.05l0 171.21 -51.61 0 0 -16.01c-11.13,12.9 -28.04,20.91 -51.18,20.91 -44.94,0 -81.87,-39.59 -81.87,-90.28 0,-51.15 36.93,-90.29 81.87,-90.29 23.14,0 39.61,8.01 51.18,20.91l0 -16.01 51.61 0 0 -0.45 0 0.01zm-51.17 85.38c0,-25.79 -17.35,-41.8 -40.94,-41.8 -23.58,0 -40.93,16.01 -40.93,41.8 0,25.8 17.35,41.81 40.93,41.81 23.59,0 40.94,-16.01 40.94,-41.81z"/>
    <path class="fil1" d="M123.26 209.47c0.38,-18.64 15.61,-33.57 34.26,-33.57 18.65,0 33.88,14.93 34.26,33.57 0.01,19.12 -15.57,34.24 -34.25,34.24 -19.15,0.45 -34.27,-15.12 -34.27,-34.25l0 0.01z"/>
    <path class="fil2" d="M680.38 209.47c0,-19.13 15.57,-34.25 34.26,-34.25 18.69,0 34.27,15.57 34.27,34.25 0,19.12 -15.58,34.24 -34.27,34.24 -18.69,0 -34.26,-15.12 -34.26,-34.24l0 0z"/>
    <polygon class="fil0" points="414.72,0 466.34,0 466.34,239.26 414.72,239.26 "/>
    <polygon class="fil3" points="688.39,0 740.01,0 740.01,156.99 688.39,156.99 "/>
    <path class="fil0" d="M580.26 197.91c14.23,0 26.26,-5.34 32.92,-12.9l40.95 23.57c-16.92,23.13 -42.28,35.13 -74.76,35.13 -58.74,0 -94.78,-39.58 -94.78,-90.28 0,-51.14 36.93,-90.28 91.22,-90.28 49.83,0 87.21,38.7 87.21,90.28 0,7.12 -0.89,14.24 -2.22,20.46l-121.48 0c6.23,18.23 22.25,24.02 40.94,24.02zm31.59 -62.26c-5.33,-20.02 -20.92,-27.14 -36.49,-27.14 -19.58,0 -32.48,9.79 -37.38,27.14l73.87 0 0 0zm-505.5 73.82c0,-6.23 0.89,-12.01 3.12,-17.35 -5.34,2.23 -11.13,3.12 -17.36,3.12 -23.58,0 -40.93,-16.01 -40.93,-41.81 0,-25.79 17.35,-41.8 40.93,-41.8 23.58,0 40.94,16.01 40.94,41.8 0,4.45 -0.44,8.45 -1.33,12.01 7.81,-4.63 16.73,-7.09 25.81,-7.12 9.79,0 19.14,2.67 27.14,7.57l-0.01 -165.89 -51.61 0 0 84.06c-11.12,-12.9 -28.04,-20.91 -51.17,-20.91 -44.94,0 -81.88,39.59 -81.88,90.28 0,51.15 36.93,90.28 81.88,90.28 12.45,0 23.58,-2.22 32.48,-6.67 -5.22,-8.24 -8.01,-17.81 -8.01,-27.57l0 0z"/>
   </g>
  </g>
 </g>
</svg>
