<?xml version="1.0" encoding="UTF-8" standalone="no"?>
<svg
   version="1.1"
   id="svg8"
   x="0px"
   y="0px"
   viewBox="0 0 12219.092 12283.289"
   xml:space="preserve"
   sodipodi:docname="iconobancolombia.svg"
   inkscape:export-filename="../../Desktop/logos bancos/iconobancolombia.svg"
   inkscape:export-xdpi="96"
   inkscape:export-ydpi="96"
   width="12219.092"
   height="12283.289"
   inkscape:version="1.4.2 (ebf0e940, 2025-05-08)"
   xmlns:inkscape="http://www.inkscape.org/namespaces/inkscape"
   xmlns:sodipodi="http://sodipodi.sourceforge.net/DTD/sodipodi-0.dtd"
   xmlns="http://www.w3.org/2000/svg"
   xmlns:svg="http://www.w3.org/2000/svg"><defs
   id="defs1" /><sodipodi:namedview
   id="namedview1"
   pagecolor="#ffffff"
   bordercolor="#000000"
   borderopacity="0.25"
   inkscape:showpageshadow="2"
   inkscape:pageopacity="0.0"
   inkscape:pagecheckerboard="0"
   inkscape:deskcolor="#d1d1d1"
   inkscape:zoom="0.01"
   inkscape:cx="6100"
   inkscape:cy="6100"
   inkscape:window-width="1280"
   inkscape:window-height="685"
   inkscape:window-x="0"
   inkscape:window-y="29"
   inkscape:window-maximized="1"
   inkscape:current-layer="layer1"><inkscape:page
     x="0"
     y="0"
     width="12219.092"
     height="12283.289"
     id="page2"
     margin="0"
     bleed="0" /></sodipodi:namedview>
 <style
   type="text/css"
   id="style1">
  .st0{fill:#2C2A29;}
 </style>
 <g
   id="layer1"
   inkscape:groupmode="layer"
   inkscape:label="Capa 1">
  <path
   id="path2"
   class="st0"
   d="M 8169.6827,689.05462 C 6555.4215,949.92792 4996.0466,1334.8391 3432.9124,1928.449 c -203.7563,83.6764 -328.5664,381.9579 -277.4394,646.769 114.284,589.6722 172.1779,885.0005 287.9656,1476.6415 48.8714,250.0446 241.3497,378.0202 436.0836,293.3594 1596.9683,-643.8157 3197.6959,-1083.8548 4850.3024,-1404.7782 189.4708,-33.4706 292.4768,-289.4218 223.3049,-546.3574 C 8806.5152,1851.6637 8732.8321,1581.9305 8583.2103,1042.4641 8518.5496,814.07692 8346.3718,663.45952 8169.6827,689.05462 Z M 9520.0382,3971.1364 C 6993.0088,4393.4559 4531.392,5211.5153 2197.5928,6564.1189 c -169.9222,105.3338 -272.1763,385.8957 -236.0866,632.987 91.7279,632.0026 137.5919,948.9883 230.8235,1581.9752 39.849,270.7177 233.0792,395.74 423.3019,273.6709 2370.6407,-1422.4979 4875.114,-2327.1869 7444.2484,-2866.6533 163.155,-35.4394 246.612,-280.5619 184.207,-532.5754 -129.321,-523.7155 -194.733,-785.5733 -328.5661,-1306.3355 -60.9013,-242.1692 -228.568,-404.5998 -395.4827,-376.0514 z m -30.0748,3526.2199 c -1578.1715,448.899 -3121.0052,989.3498 -4648.8017,1676.4803 -193.982,93.5207 -303.0029,360.3006 -251.8758,607.3919 121.8026,586.7185 181.9521,881.0625 305.2585,1469.7505 57.8939,276.624 295.4843,418.382 513.5261,309.11 1527.0445,-716.663 3069.8782,-1341.775 4645.7945,-1843.8327 151.125,-48.237 225.56,-280.5619 169.922,-519.7778 -124.058,-528.6377 -186.463,-792.4643 -314.281,-1318.1487 -62.4051,-258.9044 -245.861,-428.226 -419.5426,-380.9735 z"
   style="fill:#ffffff;stroke-width:86.0325">
  </path>
 </g>
</svg>
