<?xml version="1.0" encoding="UTF-8" standalone="no"?>
<svg
   height="601pt"
   viewBox="-0.004 0 1998.364 600.414"
   width="1998pt"
   version="1.1"
   id="svg1"
   sodipodi:docname="bbva-2.svg"
   inkscape:export-filename="../../Downloads/icono bbva.svg"
   inkscape:export-xdpi="96"
   inkscape:export-ydpi="96"
   xmlns:inkscape="http://www.inkscape.org/namespaces/inkscape"
   xmlns:sodipodi="http://sodipodi.sourceforge.net/DTD/sodipodi-0.dtd"
   xmlns="http://www.w3.org/2000/svg"
   xmlns:svg="http://www.w3.org/2000/svg">
  <defs
     id="defs1" />
  <sodipodi:namedview
     id="namedview1"
     pagecolor="#ffffff"
     bordercolor="#000000"
     borderopacity="0.25"
     inkscape:showpageshadow="2"
     inkscape:pageopacity="0.0"
     inkscape:pagecheckerboard="0"
     inkscape:deskcolor="#d1d1d1"
     inkscape:document-units="pt">
    <inkscape:page
       x="0"
       y="0"
       width="1998.364"
       height="600.414"
       id="page2"
       margin="0"
       bleed="0" />
  </sodipodi:namedview>
  <path
     d="m 1713.3,0 h 6.543 c 7.79,4.95 10.746,14.25 15.035,21.953 59.086,110.74 118.26,221.43 177.42,332.14 28.59,53.934 57.766,107.58 86.062,161.66 v 1.055 c -1.684,3.047 -3.027,7.836 -7.375,7.41 -28.738,0.09 -57.52,0.148 -86.242,-0.027 -6.894,0.277 -8.754,-7.25 -11.359,-12.098 -5.227,-9.93 -10.863,-19.61 -15.578,-29.801 -8.066,-13.691 -14.418,-28.277 -22.484,-41.953 -6.195,-13.531 -14.203,-26.082 -20.438,-39.586 -3.852,-8.172 -8.918,-15.7 -12.738,-23.883 -5.664,-12.156 -13,-23.418 -18.504,-35.66 -8.3,-14.38 -15.168,-29.508 -23.465,-43.891 -5.828,-12.887 -13.586,-24.762 -19.473,-37.621 -4.113,-8.844 -9.617,-16.973 -13.703,-25.844 -5.328,-11.512 -12.414,-22.102 -17.492,-33.727 -2.535,-4.497 -4.277,-10.75 -9.605,-12.551 -3.426,-0.278 -8.227,-1.141 -10.16,2.535 -8.957,14.395 -15.516,30.105 -24.152,44.69 -6.18,13.52 -14.246,26.067 -20.453,39.57 -3.688,7.848 -8.536,15.083 -12.254,22.903 -2.825,5.875 -5.696,11.73 -9.032,17.34 -5.902,9.957 -10.117,20.809 -16.09,30.723 -5.21,8.699 -8.914,18.203 -14.113,26.902 -5.46,8.976 -9.265,18.816 -14.637,27.824 -6.148,10.25 -10.484,21.453 -16.648,31.69 -5.195,8.7 -8.882,18.189 -14.098,26.888 -5.46,8.976 -9.265,18.816 -14.637,27.824 -5.785,9.648 -10.03,20.105 -15.477,29.918 -1.86,2.914 -3.644,6.574 -7.304,7.422 -5.621,0.996 -11.375,0.41 -17.055,0.484 -21.973,-0.016 -43.95,-0.086 -65.922,0.074 -3.98,-0.074 -8.754,-0.015 -11.477,-3.441 -0.848,-3.735 -0.543,-7.777 1.492,-11.07 89.637,-168.04 179.46,-335.97 269.18,-503.98 1.379,-2.574 3.851,-4.274 6.238,-5.871 z M 0,80.703 c 6.148,-6.484 15.473,-4.363 23.422,-4.582 80.035,0.043 160.05,0 240.09,0.016 23.539,-0.793 47.371,2.765 69.465,11.012 37.184,13.34 69.184,43.3 81.219,81.406 5.328,14.453 6.484,30.008 7.555,45.238 -0.98,16.312 -2.957,32.89 -9.121,48.164 -7.395,17.879 -18.066,35.102 -33.977,46.598 -3.836,3.703 -9.782,5.273 -12.578,9.93 21.172,7.644 39.383,22.124 53.113,39.8 22.574,29.523 28.855,68.594 25.02,104.84 -2.02,23.898 -8.887,47.621 -21.36,68.2 -8.327,12.796 -18.604,24.526 -31.077,33.43 -27.23,20.21 -60.93,29.522 -94.207,33.358 -6.82,0.926 -13.82,0.426 -20.512,2.301 H 6.102 c -2.254,-1.816 -4.348,-3.836 -6.106,-6.152 V 80.702 m 89.828,75.082 c -2.562,3.133 -1.86,7.41 -2.004,11.16 0.23,38.91 -0.351,77.832 0.29,116.73 2.386,2.976 6.046,5.012 9.925,4.805 51.738,0.042 103.49,-0.06 155.22,0.058 7.203,0.309 14.29,-1.2 21.391,-2.195 16.102,-2.344 32.191,-8.715 43.422,-20.867 7.684,-7.645 11.184,-18.25 13.773,-28.5 0.629,-8.301 3.281,-16.637 0.969,-24.926 -1.113,-14.027 -6.809,-27.66 -16.31,-38.074 -13.308,-12.066 -31.124,-17.836 -48.69,-19.961 -5.621,-0.555 -11.332,0.281 -16.91,-0.832 -6.938,-1.496 -14.04,-0.778 -21.066,-0.863 -42.47,-0.047 -84.938,0.042 -127.39,-0.06 -4.422,0 -8.844,1.216 -12.621,3.528 m 2.883,210.79 c -1.727,0.543 -3.38,1.567 -3.907,3.426 -3.12,6.035 -2.476,12.977 -2.445,19.535 0.059,40.039 -0.043,80.078 0.043,120.11 0.086,5.727 3.277,13.84 10.176,13.137 54.664,0.027 109.34,-0.031 164,0.016 5.492,0.187 10.98,0 16.398,-0.996 19.234,-1.641 39.145,-5.493 55.352,-16.578 13.027,-9.227 20.188,-24.484 22.97,-39.848 3.687,-17.734 2.312,-36.29 -2.84,-53.598 -4.614,-13.355 -13.72,-25.523 -26.485,-31.996 -16.863,-9.286 -36.215,-12.066 -55.117,-13.68 -57.605,0.015 -115.21,0.015 -172.82,0 a 24.191,24.191 0 0 0 -5.328,0.468 z M 533.45,76.547 c 6.09,-0.996 12.312,-0.293 18.461,-0.41 84.91,-0.016 169.83,0.043 254.76,-0.031 38.383,1.964 77.383,15.39 105.11,42.777 21.082,20.84 33.789,49.438 36.832,78.77 -0.059,11.613 0.484,23.258 -0.32,34.855 -3.645,24.895 -13.426,49.965 -32.164,67.39 -5.297,5.551 -11.051,10.708 -17.785,14.454 -1.39,1.171 -4.336,1.757 -3.47,4.132 21.548,8.786 41.005,23.473 54.399,42.613 5.754,7.895 9.894,16.797 13.879,25.688 7.918,17.88 9.398,37.664 10.555,56.938 -0.98,14.906 -1.875,29.945 -5.43,44.531 -5.183,25.422 -18.402,48.984 -36.863,67.113 -7.539,6.227 -15.152,12.465 -23.613,17.414 -23.863,14.613 -51.633,21.367 -79.129,24.996 -7.668,1.305 -15.574,0.602 -23.145,2.637 h -270.77 c -4.215,-2.46 -8.297,-6.34 -7.758,-11.688 0.032,-166.96 0.032,-333.93 0,-500.89 -0.175,-4.613 2.578,-8.95 6.457,-11.289 m 90.707,76.266 c -2.812,0.66 -5.87,1.684 -7.379,4.363 -2.62,3.707 -1.875,8.45 -1.976,12.711 0.133,35.645 0.043,71.29 0.027,106.92 -0.246,4.645 2.844,8.657 6.383,11.305 10.527,0.926 21.141,0.106 31.711,0.368 44.914,-0.028 89.812,0.058 134.73,-0.028 15.066,-1.699 30.656,-3.664 43.875,-11.688 13.617,-6.12 22.223,-19.375 26.848,-33.098 3.484,-11.098 2.285,-22.828 2.344,-34.266 -0.996,-8.113 -3.586,-16.094 -7.277,-23.387 -10.555,-18.117 -30.887,-28.102 -51.062,-31.047 -7.934,-1.992 -16.176,-0.351 -24.141,-1.992 -6.09,-1.184 -12.297,-0.598 -18.43,-0.656 -43.45,-0.047 -86.898,0.043 -130.34,-0.059 -1.801,0.012 -3.57,0.188 -5.313,0.555 m -2.945,213.79 c -4.36,0.95 -6.57,5.55 -6.336,9.707 -0.031,42 0.027,83.984 -0.031,125.97 0.058,5.348 -0.528,10.926 1.55,16.008 1.043,3.59 5.434,4.406 8.684,4.48 55.629,0.075 111.27,-0.058 166.92,0.075 7.352,0.367 14.539,-1.524 21.859,-1.86 18.75,-2.344 38.004,-7.746 52.465,-20.488 11.406,-11.496 16.984,-27.59 18.215,-43.492 1.46,-7.879 1.8,-15.949 0.176,-23.828 -1.422,-17.836 -7.656,-36.875 -22.445,-48.016 -17.887,-13.812 -41.078,-17.004 -62.918,-19.055 -55.633,0.016 -111.28,0.016 -166.91,0 -3.746,0.09 -7.555,-0.308 -11.23,0.5 z M 976.92,87.25 c -2.648,-5.36 2.594,-11.805 8.29,-11.145 27.343,-0.016 54.706,0.133 82.065,-0.059 3.18,-0.16 6.691,0.293 8.39,3.399 6.485,9.957 11.728,20.69 16.939,31.367 3.293,6.824 7.507,13.152 10.805,19.977 6.074,13.164 13.938,25.39 19.953,38.586 8.05,13.69 14.418,28.277 22.473,41.957 6.906,14.789 15.59,28.645 22.41,43.477 5.93,10.37 11.316,21.016 16.69,31.69 6.821,11.056 11.595,23.185 18.329,34.298 4.699,8.172 8.183,16.973 13.043,25.055 6.164,10.238 10.48,21.457 16.645,31.676 6.105,10.254 10.25,21.559 16.82,31.53 2.945,5.536 12.578,5.552 15.535,0 6.543,-9.987 10.699,-21.276 16.805,-31.53 5.445,-8.961 9.28,-18.79 14.64,-27.81 6.15,-10.25 10.48,-21.452 16.646,-31.702 6.09,-10.648 10.832,-22.027 17.258,-32.496 7.496,-15.715 16.543,-30.605 23.938,-46.363 6.062,-10.297 11.168,-21.09 16.703,-31.66 6.472,-10.441 10.949,-21.938 17.289,-32.438 5.476,-9.402 9.488,-19.551 15.035,-28.91 5.62,-9.285 9.547,-19.461 15.18,-28.746 7.527,-12.668 12.387,-26.93 21.289,-38.777 2.02,-3.121 5.984,-2.418 9.176,-2.594 26.863,0.25 53.742,0.047 80.605,0.074 3.648,-0.41 6.722,2.024 8.449,5.055 1.71,5.05 -1.961,9.648 -4.278,13.809 -85.418,159.65 -170.59,319.43 -255.98,479.1 -4.89,9.121 -9.02,19.035 -16.586,26.344 h -6.441 c -9.707,-6.078 -12.973,-17.926 -18.52,-27.324 -86.562,-161.92 -172.94,-323.98 -259.59,-485.84 z"
     fill="#004580"
     id="path1"
     style="fill:#ffffff" />
</svg>
