<?xml version="1.0" encoding="UTF-8" standalone="no"?>
<svg
   viewBox="0 -0.5 1366 750.5"
   width="2500"
   height="1374"
   version="1.1"
   id="svg1"
   sodipodi:docname="nubank-logo.svg"
   inkscape:export-filename="icono nu.svg"
   inkscape:export-xdpi="96"
   inkscape:export-ydpi="96"
   xmlns:inkscape="http://www.inkscape.org/namespaces/inkscape"
   xmlns:sodipodi="http://sodipodi.sourceforge.net/DTD/sodipodi-0.dtd"
   xmlns="http://www.w3.org/2000/svg"
   xmlns:svg="http://www.w3.org/2000/svg">
  <defs
     id="defs1" />
  <sodipodi:namedview
     id="namedview1"
     pagecolor="#ffffff"
     bordercolor="#000000"
     borderopacity="0.25"
     inkscape:showpageshadow="2"
     inkscape:pageopacity="0.0"
     inkscape:pagecheckerboard="0"
     inkscape:deskcolor="#d1d1d1">
    <inkscape:page
       x="0"
       y="0"
       width="1366"
       height="750.5"
       id="page2"
       margin="0"
       bleed="0" />
  </sodipodi:namedview>
  <g
     fill="#820ad1"
     id="g1"
     style="fill:#ffffff">
    <path
       d="M 235.8,70.7 C 105.6,70.7 0,176.3 0,306.5 V 727.7 H 180.9 V 235.3 c 0,-63.9 25.4,-121.9 66.7,-164.3 -3.9,-0.2 -7.8,-0.3 -11.8,-0.3 z m 181,-71.2 c -66.3,0 -126.3,27.4 -169.1,71.5 124.7,6.2 224,109.3 224,235.5 V 727.7 H 652.6 V 235.3 C 652.6,105.1 547,-0.5 416.8,-0.5 Z m 713.4,679.3 C 1260.4,678.8 1366,573.2 1366,443 V 21.8 h -180.9 v 492.4 c 0,63.9 -25.4,121.9 -66.7,164.3 3.9,0.2 7.8,0.3 11.8,0.3 z m -181,71.2 c 66.3,0 126.3,-27.4 169.1,-71.5 C 993.6,672.3 894.3,569.2 894.3,443 V 21.8 H 713.4 V 514.2 C 713.4,644.4 819,750 949.2,750 Z"
       id="path1"
       style="fill:#ffffff" />
  </g>
</svg>
