<?xml version="1.0" encoding="UTF-8" standalone="no"?>
<svg
   height="500"
   viewBox="14.09 246.68 136.714 499.99998"
   width="500"
   version="1.1"
   id="svg8"
   sodipodi:docname="logo-banco-de-bogota.svg"
   inkscape:export-filename="icono bancodebogota"
   inkscape:export-xdpi="96"
   inkscape:export-ydpi="96"
   xmlns:inkscape="http://www.inkscape.org/namespaces/inkscape"
   xmlns:sodipodi="http://sodipodi.sourceforge.net/DTD/sodipodi-0.dtd"
   xmlns:xlink="http://www.w3.org/1999/xlink"
   xmlns="http://www.w3.org/2000/svg"
   xmlns:svg="http://www.w3.org/2000/svg">
  <defs
     id="defs8" />
  <sodipodi:namedview
     id="namedview8"
     pagecolor="#ffffff"
     bordercolor="#000000"
     borderopacity="0.25"
     inkscape:showpageshadow="2"
     inkscape:pageopacity="0.0"
     inkscape:pagecheckerboard="0"
     inkscape:deskcolor="#d1d1d1">
    <inkscape:page
       x="0"
       y="0"
       width="136.714"
       height="499.99997"
       id="page2"
       margin="0"
       bleed="0" />
  </sodipodi:namedview>
  <linearGradient
     id="a"
     gradientUnits="userSpaceOnUse"
     x1="481.36899"
     x2="645.03802"
     y1="346.32101"
     y2="346.32101"
     gradientTransform="matrix(1.7092467,0,0,1.7569139,-923.94175,-118.5341)">
    <stop
       offset="0"
       stop-color="#e74e0f"
       id="stop1" />
    <stop
       offset="1"
       stop-color="#e20613"
       id="stop2" />
  </linearGradient>
  <linearGradient
     id="b">
    <stop
       offset=".24"
       stop-color="#f6a500"
       id="stop3" />
    <stop
       offset="1"
       stop-color="#ffec00"
       id="stop4" />
  </linearGradient>
  <linearGradient
     id="c"
     gradientUnits="userSpaceOnUse"
     x1="544.68298"
     x2="690.71698"
     xlink:href="#b"
     y1="322.07199"
     y2="322.07199"
     gradientTransform="matrix(1.7092467,0,0,1.7569139,-923.94175,-118.5341)" />
  <linearGradient
     id="d"
     gradientUnits="userSpaceOnUse"
     x1="594.08398"
     x2="694.487"
     xlink:href="#b"
     y1="395.91299"
     y2="395.91299"
     gradientTransform="matrix(1.7092467,0,0,1.7569139,-923.94175,-118.5341)" />
  <path
     d="m 170.77948,628.36516 c -11.17848,8.09937 -22.68172,15.60139 -35.34724,21.1181 -93.529973,40.77797 -199.554544,-8.87241 -229.021957,-109.06921 -13.041553,-44.32694 -9.383763,-87.47675 12.067282,-128.50069 15.17811,-29.00665 37.329947,-51.24918 64.951373,-67.76417 28.954639,-17.34074 60.387686,-25.87934 93.786366,-27.23217 0.495681,-0.0176 1.008455,-0.15812 1.452859,-0.0351 1.111011,0.29867 2.854442,-2.02045 3.162107,0.15812 0.273479,1.91503 -0.512774,4.07604 -3.469771,4.19902 -10.443497,0.43923 -20.596423,2.65294 -30.424591,6.16677 -39.9109099,14.24857 -70.60898,39.68869 -89.427786,79.00842 -10.494774,21.92629 -12.95609,45.22296 -9.674336,69.25755 8.050552,58.87418 52.7986296,106.87307 112.964113,118.50384 39.757081,7.67772 76.676801,-0.24597 110.263511,-23.66563 1.09392,2.45968 2.18784,4.91936 3.26466,7.37904 3.21339,9.13595 3.93127,18.53544 2.68352,28.09305 -0.99136,7.60744 -2.75189,15.00405 -6.54641,21.71546 -0.25639,0.2284 -0.49569,0.47437 -0.75207,0.70276 z"
     fill="url(#a)"
     id="path4"
     style="fill:#ffffff;stroke-width:1.73292" />
  <path
     d="m 175.32607,577.87145 c -1.09391,-2.45968 -2.18783,-4.91936 -3.26466,-7.37904 -6.75152,-14.231 -16.75062,-25.91448 -28.1684,-36.22756 C 109.75936,503.46615 71.0962,480.94251 27.100191,468.50356 21.579324,466.9399 15.93881,465.79791 10.383759,464.39238 9.3582105,464.12884 8.4181249,463.54906 7.06782,462.95171 c 1.8801713,-1.17713 3.726158,-1.1947 5.384127,-1.72178 35.620701,-11.36723 71.737083,-21.45191 104.657163,-40.21576 14.68243,-8.36291 28.8179,-17.51643 39.85965,-30.8514 3.67488,-4.42743 6.71734,-9.27651 8.49496,-14.81079 3.98254,-12.3511 -0.0684,-24.28055 -11.31521,-33.46921 -11.75964,-9.62789 -25.58744,-14.37155 -40.04767,-17.49886 -9.22993,-2.00288 -18.596597,-2.81106 -28.031639,-2.58266 -1.093918,0.0351 -3.179198,0.91359 -3.127921,-1.17714 0.03418,-1.80962 0.444404,-3.90035 3.367216,-3.83007 12.733888,0.2284 25.348124,1.40553 37.859804,3.8125 21.16048,4.05848 41.38088,10.75232 59.77238,22.55878 6.97372,4.48013 13.31503,9.75087 18.90426,15.95278 15.96437,17.74483 18.92137,40.05763 7.99928,61.47442 -1.69216,3.32056 -3.60651,6.55328 -5.60633,9.69816 -1.31612,2.07316 -1.09392,2.75836 1.38449,3.39084 16.01564,4.12875 31.46723,9.92657 46.49151,16.93665 1.16229,0.54465 2.54678,0.80818 3.53814,2.19615 -12.20402,1.01901 -24.06619,2.82863 -35.50105,6.90467 -27.55306,9.78601 -43.39778,29.46345 -47.60252,59.08501 -1.46996,10.3658 -1.64088,20.71402 -0.63242,31.11495 0.10255,1.03658 -0.29058,2.37183 1.21356,2.79349 0.82044,3.16245 0.49568,6.46545 0.70079,9.64546 0.34185,5.11262 1.28194,10.31309 0.49568,15.51355 z"
     fill="url(#c)"
     id="path5"
     style="fill:#ffffff;stroke-width:1.73292" />
  <path
     d="m 175.32607,577.87145 c 0.78626,-5.20046 -0.15383,-10.38336 -0.47859,-15.53112 -0.20511,-3.18001 0.10256,-6.48301 -0.70079,-9.64546 -0.99136,-26.26586 2.35876,-51.12619 22.08347,-70.54009 5.24739,-5.14776 11.3494,-9.04811 18.01546,-12.05243 1.52123,-0.6852 2.63224,-0.80818 3.94836,0.43923 16.08401,15.32029 30.09983,32.25694 38.25294,53.48046 12.08437,31.4839 7.36685,60.94734 -11.05883,88.40791 -14.25511,21.22352 -33.50123,36.63165 -55.49924,48.5611 -30.71516,16.63797 -63.43016,24.84276 -98.384244,23.33182 3.486863,-1.12443 7.007911,-2.19615 10.477684,-3.37328 21.00663,-7.08036 40.54332,-16.7961 55.8411,-33.75032 5.11064,-5.65726 10.13583,-11.47264 12.95609,-18.83411 l -0.0684,0.0351 c 0.54696,0.0879 0.63242,-0.31624 0.75207,-0.70276 3.81162,-6.72898 5.57214,-14.12559 6.54641,-21.71546 1.24775,-9.57518 0.52987,-18.99224 -2.68352,-28.11062 z"
     fill="url(#d)"
     id="path6"
     style="fill:#ffffff;stroke-width:1.73292" />
  <path
     d="m 211.20316,627.67996 c -0.10255,0.38652 -0.20511,0.79061 -0.75207,0.70277 0.25639,-0.2284 0.49568,-0.4568 0.75207,-0.70277 z"
     fill="#ffffff"
     id="path8"
     style="fill:#ffffff;stroke-width:1.73292" />
</svg>
