<?xml version="1.0" encoding="UTF-8" standalone="no"?>
<svg
   width="200"
   height="200"
   viewBox="0 0 200 200"
   fill="none"
   version="1.1"
   id="svg15"
   sodipodi:docname="Banco_Popular_(Colombia)_Logo_2025.svg"
   inkscape:export-filename="../../Downloads/icono bancopopular.svg"
   inkscape:export-xdpi="96"
   inkscape:export-ydpi="96"
   xmlns:inkscape="http://www.inkscape.org/namespaces/inkscape"
   xmlns:sodipodi="http://sodipodi.sourceforge.net/DTD/sodipodi-0.dtd"
   xmlns="http://www.w3.org/2000/svg"
   xmlns:svg="http://www.w3.org/2000/svg">
  <defs
     id="defs15" />
  <sodipodi:namedview
     id="namedview15"
     pagecolor="#ffffff"
     bordercolor="#000000"
     borderopacity="0.25"
     inkscape:showpageshadow="2"
     inkscape:pageopacity="0.0"
     inkscape:pagecheckerboard="0"
     inkscape:deskcolor="#d1d1d1">
    <inkscape:page
       x="0"
       y="0"
       width="200"
       height="200"
       id="page2"
       margin="0"
       bleed="0" />
  </sodipodi:namedview>
  <path
     d="m 60.041083,138.06341 v 29.71333 c 0,2.6948 1.789738,4.86836 4.008501,4.86836 h 19.110681 c 2.21881,0 4.008548,-2.17356 4.008548,-4.86836 v -25.04242 c -0.177579,0 -0.340283,0 -0.517862,0 -10.235441,0 -19.05141,-1.76062 -26.609868,-4.68896 z"
     fill="#00b800"
     id="path13"
     style="fill:#ffffff;stroke-width:5.12094" />
  <path
     d="m 86.650951,113.52136 c 6.597392,0 12.262261,-1.94057 16.936499,-5.03026 0,0 0,0 -0.0149,0 -4.910855,0 -8.904528,-1.65287 -11.981017,-4.94 -3.07649,-3.28769 -4.585448,-7.886958 -4.585448,-13.797244 V 55.405824 c 3.121117,-1.904244 7.351406,-2.874305 12.72062,-2.874305 7.706565,0 13.445815,2.209602 17.232155,6.610924 3.74218,4.311513 5.6207,9.233517 5.69508,19.150185 H 150.0625 C 148.96774,45.453448 132.46032,29.033829 100.5551,29.033829 h -0.0149 c -7.691687,-0.01794 -15.205796,1.329406 -22.512575,4.024095 -7.292275,2.676693 -13.312442,5.982155 -18.001369,9.970315 v 6.431308 l 0.05918,52.223193 c 7.395754,9.95221 16.936219,11.83862 26.580349,11.83862 z"
     fill="#00b800"
     id="path14"
     style="fill:#ffffff;stroke-width:5.12094" />
  <path
     d="m 122.90546,82.73733 h -0.1627 c -0.0298,0.682585 -0.0744,1.347119 -0.11854,1.994165 -0.0298,0.341292 -0.17758,1.490969 -0.22175,1.742567 -1.28675,6.71867 -4.63007,13.976078 -9.88074,19.814718 -6.07953,6.77283 -14.702815,11.65923 -25.633697,11.65923 -9.141609,0 -18.7115,-1.67092 -26.565845,-10.02441 C 54.612645,101.85141 49.80541,92.276601 46.713951,77.20444 L 24.615385,89.617903 c 2.854771,14.191567 13.134909,34.563637 35.706803,43.815207 7.454932,3.05415 16.24115,4.88641 26.536094,4.88641 0.177579,0 0.340282,0 0.517861,0 9.111393,-0.0536 17.276317,-1.58067 24.465017,-4.23936 24.1252,-8.87474 37.31906,-30.36038 38.1772,-51.324778 h -27.14265 z"
     fill="#969696"
     id="path15"
     style="fill:#ffffff;stroke-width:5.12094" />
</svg>
