<?xml version="1.0" encoding="UTF-8" standalone="no"?>
<svg
   version="1.0"
   width="1000pt"
   height="1000pt"
   viewBox="0 0 999.99998 999.99998"
   preserveAspectRatio="xMidYMid"
   id="svg3"
   sodipodi:docname="icono-nequi.svg"
   xmlns:inkscape="http://www.inkscape.org/namespaces/inkscape"
   xmlns:sodipodi="http://sodipodi.sourceforge.net/DTD/sodipodi-0.dtd"
   xmlns="http://www.w3.org/2000/svg"
   xmlns:svg="http://www.w3.org/2000/svg">
  <defs
     id="defs3" />
  <sodipodi:namedview
     id="namedview3"
     pagecolor="#ffffff"
     bordercolor="#000000"
     borderopacity="0.25"
     inkscape:showpageshadow="2"
     inkscape:pageopacity="0.0"
     inkscape:pagecheckerboard="0"
     inkscape:deskcolor="#d1d1d1"
     inkscape:document-units="pt">
    <inkscape:page
       x="0"
       y="0"
       width="999.99994"
       height="999.99994"
       id="page2"
       margin="0"
       bleed="0" />
  </sodipodi:namedview>
  <g
     transform="matrix(0.1,0,0,-0.1,-125.25,1203.0491)"
     fill="#000000"
     stroke="none"
     id="g3"
     style="fill:#ffffff">
    <path
       d="m 3775,9036 c -17,-7 -43,-28 -58,-45 l -27,-33 v -336 c 0,-317 1,-339 20,-369 41,-68 43,-68 460,-68 417,0 419,0 461,68 18,30 19,48 17,374 l -3,341 -25,27 c -49,54 -60,55 -452,55 -279,-1 -370,-4 -393,-14 z"
       id="path2"
       style="fill:#ffffff" />
    <path
       d="m 5340,9032 c -19,-9 -45,-32 -57,-51 l -23,-34 V 7030 5113 l 23,-34 c 46,-69 52,-70 429,-67 320,3 338,4 364,23 15,11 35,36 45,55 18,33 19,87 19,1272 0,1235 0,1237 20,1248 12,6 28,9 38,6 10,-4 309,-532 726,-1280 389,-701 719,-1285 733,-1298 l 25,-23 509,-3 c 570,-3 557,-4 601,67 l 23,36 v 1915 c 0,1897 0,1915 -20,1949 -41,69 -51,71 -418,71 -354,0 -356,0 -407,-55 l -25,-27 -5,-1215 c -5,-1188 -5,-1215 -24,-1229 -24,-17 -28,-17 -48,-1 -9,6 -309,541 -668,1187 -780,1404 -724,1306 -760,1325 -25,13 -105,15 -547,15 -473,0 -521,-2 -553,-18 z"
       id="path3"
       style="fill:#ffffff" />
  </g>
</svg>
