<svg xmlns="http://www.w3.org/2000/svg" width="74.738" height="24.973" viewBox="0 0 74.738 24.973">
  <g id="Grupo_1036" data-name="Grupo 1036" transform="translate(-84.262 -50.642)">
    <g id="Logo_Flat" data-name="Logo Flat" transform="translate(84.262 50.642)">
      <path id="Trazado_1" data-name="Trazado 1" d="M166.334,85.747c1.068-2.811,5.316-13.983,5.57-14.665a1.449,1.449,0,1,0-2.768-.844l-4.8,12.628s-4.758-12.6-4.915-12.925a1.443,1.443,0,0,0-2-.631,1.311,1.311,0,0,0-.705.936,1.787,1.787,0,0,0,.157,1.1l5.468,14.4c.332.873,1.411,1,1.995,1s1.663-.128,1.995-1" transform="translate(-116.442 -68.791)" fill="#fff"/>
      <path id="Trazado_2" data-name="Trazado 2" d="M122.223,76.5a6.018,6.018,0,0,0-.663-1.97,6.123,6.123,0,0,0-2.456-2.456,6.036,6.036,0,0,0-1.088-.46,6.1,6.1,0,0,0-.881-.2,6.227,6.227,0,0,0-1.863,0,6.1,6.1,0,0,0-.881.2,6.083,6.083,0,0,0-1.83.935,6.133,6.133,0,0,0-1.715,1.981,6.064,6.064,0,0,0-.46,1.088,5.955,5.955,0,0,0-.2.881,6.2,6.2,0,0,0,0,1.863,5.933,5.933,0,0,0,.2.88,6.056,6.056,0,0,0,.46,1.089,6.143,6.143,0,0,0,2.456,2.456,6,6,0,0,0,1.969.663,6.142,6.142,0,0,0,2.744-.2,6.065,6.065,0,0,0,1.088-.46,6.124,6.124,0,0,0,2.456-2.456,6.014,6.014,0,0,0,.663-1.969,6.2,6.2,0,0,0,0-1.863m3.121.931a9.14,9.14,0,1,1-9.14-9.14,9.14,9.14,0,0,1,9.14,9.14" transform="translate(-86.676 -68.29)" fill="#fff"/>
      <path id="Trazado_3" data-name="Trazado 3" d="M65.238,83.828l5.426-9.406V84.2a4.835,4.835,0,0,0,.147,1.661,1.525,1.525,0,0,0,2.853-.264,14.145,14.145,0,0,0,.05-1.686V71.832a7.426,7.426,0,0,0-.117-1.76,1.524,1.524,0,0,0-1.408-.938,5.9,5.9,0,0,0-1.722.126c-.627.271-.807.8-1.1,1.306l-4.451,7.715-4.451-7.715c-.293-.509-.475-1.035-1.1-1.306a5.9,5.9,0,0,0-1.722-.126,1.524,1.524,0,0,0-1.408.938,7.388,7.388,0,0,0-.118,1.76V83.911a14.062,14.062,0,0,0,.05,1.686,1.525,1.525,0,0,0,2.853.264,4.826,4.826,0,0,0,.147-1.661V74.422l5.427,9.406Z" transform="translate(-56.11 -68.793)" fill="#fff"/>
      <path id="Trazado_4" data-name="Trazado 4" d="M220.144,85.215v-14.5a1.526,1.526,0,1,0-3.051-.044V85.173a1.526,1.526,0,1,0,3.051.042" transform="translate(-152.68 -68.801)" fill="#fff"/>
      <path id="Trazado_5" data-name="Trazado 5" d="M201.5,86.741a1.53,1.53,0,0,1-1.525-1.645c0-.773,0-13.616,0-14.431a1.525,1.525,0,0,1,3.05,0c0,.814,0,13.66,0,14.432a1.53,1.53,0,0,1-1.525,1.645" transform="translate(-142.408 -68.802)" fill="#fff"/>
      <path id="Trazado_6" data-name="Trazado 6" d="M204.744,113.176a.763.763,0,0,0-.626,1.391,3.354,3.354,0,0,1,1.4,1.138,19.006,19.006,0,0,1-20.1.087.763.763,0,0,0-.8,1.3,20.532,20.532,0,0,0,21.515.03,3.338,3.338,0,0,1-.2,1.976.763.763,0,1,0,1.413.574,5.04,5.04,0,0,0-2.6-6.494" transform="translate(-132.981 -95.176)" fill="#fff"/>
    </g>
  </g>
</svg>
