<?xml version="1.0" encoding="UTF-8" standalone="no"?>
<!-- Generator: Adobe Illustrator 25.3.1, SVG Export Plug-In . SVG Version: 6.00 Build 0)  -->

<svg
   version="1.1"
   id="Layer_1"
   x="0px"
   y="0px"
   viewBox="0 0 11455111 4317460.8"
   xml:space="preserve"
   sodipodi:docname="Visa_Brandmark_Blue_RGB_2021.svgz"
   inkscape:export-filename="Visa_Brandmark_Blue_RGB_2021.svgz.svg"
   inkscape:export-xdpi="96"
   inkscape:export-ydpi="96"
   width="11455111"
   height="4317461"
   xmlns:inkscape="http://www.inkscape.org/namespaces/inkscape"
   xmlns:sodipodi="http://sodipodi.sourceforge.net/DTD/sodipodi-0.dtd"
   xmlns="http://www.w3.org/2000/svg"
   xmlns:svg="http://www.w3.org/2000/svg"><defs
   id="defs1" /><sodipodi:namedview
   id="namedview1"
   pagecolor="#ffffff"
   bordercolor="#000000"
   borderopacity="0.25"
   inkscape:showpageshadow="2"
   inkscape:pageopacity="0.0"
   inkscape:pagecheckerboard="0"
   inkscape:deskcolor="#d1d1d1"><inkscape:page
     x="0"
     y="0"
     width="11455111"
     height="4317461"
     id="page2"
     margin="0"
     bleed="0" /></sodipodi:namedview>
<style
   type="text/css"
   id="style1">
	.st0{fill:#1434CB;}
</style>
<path
   class="st0"
   d="m 1461.26,739.84 -251.37,599.74 h -164 L 922.19,860.96 c -7.51,-29.48 -14.04,-40.28 -36.88,-52.7 -37.29,-20.23 -98.87,-39.21 -153.05,-50.99 l 3.68,-17.43 h 263.99 c 33.65,0 63.9,22.4 71.54,61.15 l 65.33,347.04 161.46,-408.2 h 163 z m 642.58,403.93 c 0.66,-158.29 -218.88,-167.01 -217.37,-237.72 0.47,-21.52 20.96,-44.4 65.81,-50.24 22.23,-2.91 83.48,-5.13 152.95,26.84 l 27.25,-127.18 c -37.33,-13.55 -85.36,-26.59 -145.12,-26.59 -153.35,0 -261.27,81.52 -262.18,198.25 -0.99,86.34 77.03,134.52 135.81,163.21 60.47,29.38 80.76,48.26 80.53,74.54 -0.43,40.23 -48.23,57.99 -92.9,58.69 -77.98,1.2 -123.23,-21.1 -159.3,-37.87 l -28.12,131.39 c 36.25,16.63 103.16,31.14 172.53,31.87 162.99,0 269.61,-80.51 270.11,-205.19 m 404.94,195.81 h 143.49 L 2527.02,739.84 h -132.44 c -29.78,0 -54.9,17.34 -66.02,44 l -232.81,555.74 h 162.91 L 2291,1250 h 199.05 z m -173.11,-212.5 81.66,-225.18 47,225.18 z M 1682.93,739.84 1554.64,1339.58 H 1399.5 l 128.34,-599.74 z"
   id="path1" />
</svg>
