<?xml version="1.0" encoding="UTF-8" standalone="no"?>
<!-- Created with Inkscape (http://www.inkscape.org/) -->

<svg
   width="2048mm"
   height="768mm"
   viewBox="0 0 2048 768"
   version="1.1"
   id="svg1"
   xmlns="http://www.w3.org/2000/svg"
   xmlns:svg="http://www.w3.org/2000/svg">
  <defs
     id="defs1" />
  <g
     id="layer1">
    <path
       d="m 284.40341,1017.6609 v 86.4304 h 20.37288 v -32.5966 h 91.36928 v -18.5208 h -91.36928 v -16.7922 h 103.96342 v -18.5208 z m 143.1041,0 v 86.4304 h 20.37288 v -86.4304 z m 69.63823,23.8301 92.97441,62.6003 h 19.38511 v -86.4304 h -20.37288 v 62.6003 l -92.97442,-62.6003 h -19.3851 v 86.4304 h 20.37288 z m 191.50507,63.835 h 37.0416 c 10.00123,0 18.5208,-1.1112 25.68217,-3.4572 7.16138,-2.346 12.96456,-5.5562 17.40956,-9.5073 4.44499,-3.9511 7.77873,-8.6431 9.87776,-14.0758 1.97555,-5.4328 3.0868,-11.236 3.0868,-17.4096 0,-6.1736 -1.11125,-11.8533 -3.0868,-17.2861 -2.09903,-5.4327 -5.43277,-10.1247 -9.87776,-14.0758 -4.445,-3.9511 -10.24818,-7.1614 -17.40956,-9.5073 -7.16137,-2.346 -15.68094,-3.5807 -25.68217,-3.5807 h -37.0416 c -10.12471,0 -18.64427,1.2347 -25.80565,3.5807 -7.16138,2.3459 -12.96456,5.5562 -17.40955,9.5073 -4.44499,3.9511 -7.77874,8.6431 -9.75429,14.0758 -2.09902,5.4328 -3.0868,11.1125 -3.0868,17.2861 0,6.1736 0.98778,11.9768 3.0868,17.4096 1.97555,5.4327 5.3093,10.1247 9.75429,14.0758 4.44499,3.9511 10.24817,7.1613 17.40955,9.5073 7.16138,2.346 15.68094,3.4572 25.80565,3.4572 z m 36.91813,-18.5208 h -36.79466 c -6.79096,0 -12.3472,-0.6173 -16.79219,-1.9755 -4.44499,-1.3582 -8.02568,-3.2103 -10.61859,-5.5563 -2.71639,-2.3459 -4.56847,-5.0623 -5.55624,-8.2726 -1.11125,-3.0868 -1.60514,-6.4205 -1.60514,-10.1247 0,-3.4572 0.49389,-6.791 1.60514,-10.0012 0.98777,-3.2103 2.83985,-5.9267 5.55624,-8.2726 2.71638,-2.346 6.29707,-4.1981 10.74206,-5.5563 4.44499,-1.3582 10.00123,-2.099 16.79219,-2.099 h 36.67119 c 6.66748,0 12.22372,0.7408 16.66872,2.099 4.44499,1.3582 7.9022,3.2103 10.61859,5.5563 2.59291,2.3459 4.44499,5.0623 5.55624,8.2726 0.98777,3.2102 1.60513,6.544 1.60513,10.0012 0,3.7042 -0.61736,7.0379 -1.60513,10.1247 -1.11125,3.2103 -2.96333,5.9267 -5.55624,8.2726 -2.71639,2.346 -6.1736,4.1981 -10.61859,5.5563 -4.445,1.3582 -10.00124,1.9755 -16.66872,1.9755 z m 79.26898,-69.1443 v 86.4304 h 20.37288 v -29.3863 h 44.69686 l 44.94381,29.3863 h 33.70786 l -47.53672,-29.7567 c 5.67971,-0.247 10.61859,-1.2348 14.81664,-2.8399 4.07457,-1.4817 7.40832,-3.5807 10.00123,-6.0501 2.59291,-2.4695 4.56846,-5.4328 5.80318,-8.7665 1.23472,-3.2103 1.85208,-6.791 1.85208,-10.6186 0,-3.9511 -0.74083,-7.5318 -2.09902,-10.989 -1.35819,-3.4573 -3.45722,-6.4206 -6.42054,-9.0135 -2.96333,-2.5929 -6.79096,-4.6919 -11.35943,-6.1736 -4.69193,-1.4817 -10.24817,-2.2225 -16.66872,-2.2225 z m 20.37288,18.5208 h 70.9964 c 3.21027,0 5.80318,0.3704 7.90221,0.8643 2.09902,0.4939 3.70416,1.2347 4.93888,2.2225 1.23472,0.9878 1.97555,1.9756 2.46944,3.2103 0.49389,1.2347 0.74083,2.5929 0.74083,3.9511 0,1.4816 -0.24694,2.9633 -0.74083,4.198 -0.49389,1.2348 -1.23472,2.346 -2.46944,3.3338 -1.23472,0.9878 -2.83986,1.7286 -4.93888,2.2225 -2.09903,0.4939 -4.69194,0.7408 -7.90221,0.7408 h -70.9964 z m 245.4624,53.5869 11.2359,14.3227 h 25.1883 l -68.1565,-86.4304 h -21.7311 l -68.03308,86.4304 h 25.18829 l 11.11248,-14.3227 z m -72.23115,-16.6688 29.63325,-38.0293 29.6333,38.0293 z"
       id="text3"
       style="font-weight:750;font-size:123.472px;line-height:0.4;font-family:'Stereo Gothic W01';-inkscape-font-specification:'Stereo Gothic W01 weight=750';text-align:center;text-anchor:middle;white-space:pre;inline-size:864.374;fill:#ffffff;stroke-width:0.264583"
       transform="translate(328.25063,-676.87606)"
       aria-label="FINORA" />
  </g>
</svg>
